HIERARCHY
ROOT joint_0
{
	OFFSET 0.000000 0.000000 0.000000
	CHANNELS 6 Xposition Yposition Zposition Zrotation Yrotation Xrotation 
	JOINT joint_1
	{
		OFFSET 5.091736 1.614004 124.993042
		CHANNELS 3 Zrotation Yrotation Xrotation
		JOINT joint_2
		{
			OFFSET -7.754517 4.363039 113.797974
			CHANNELS 3 Zrotation Yrotation Xrotation
			JOINT joint_3
			{
				OFFSET -8.706238 5.370684 113.558960
				CHANNELS 3 Zrotation Yrotation Xrotation
				JOINT joint_4
				{
					OFFSET 2.800659 5.843341 158.209106
					CHANNELS 3 Zrotation Yrotation Xrotation
					JOINT joint_5
					{
						OFFSET 20.525452 8.617594 92.185913
						CHANNELS 3 Zrotation Yrotation Xrotation
						End Site
						{
							OFFSET 0.000000 0.000000 0.000000
						}
					}
				}
				JOINT joint_6
				{
					OFFSET -4.183167 -30.671114 90.057007
					CHANNELS 3 Zrotation Yrotation Xrotation
					JOINT joint_7
					{
						OFFSET -24.729675 -138.200195 -6.097900
						CHANNELS 3 Zrotation Yrotation Xrotation
						JOINT joint_8
						{
							OFFSET 16.966858 -51.567780 -315.633057
							CHANNELS 3 Zrotation Yrotation Xrotation
							JOINT joint_9
							{
								OFFSET 129.835388 -40.459091 176.646973
								CHANNELS 3 Zrotation Yrotation Xrotation
								End Site
								{
									OFFSET 0.000000 0.000000 0.000000
								}
							}
						}
					}
				}
				JOINT joint_10
				{
					OFFSET 7.338745 37.199406 87.346069
					CHANNELS 3 Zrotation Yrotation Xrotation
					JOINT joint_11
					{
						OFFSET 20.327698 137.488367 -20.779053
						CHANNELS 3 Zrotation Yrotation Xrotation
						JOINT joint_12
						{
							OFFSET 150.763062 48.206573 -278.419922
							CHANNELS 3 Zrotation Yrotation Xrotation
							JOINT joint_13
							{
								OFFSET 12.571289 -162.355251 152.253906
								CHANNELS 3 Zrotation Yrotation Xrotation
								End Site
								{
									OFFSET 0.000000 0.000000 0.000000
								}
							}
						}
					}
				}
			}
		}
	}
	JOINT joint_14
	{
		OFFSET -7.600342 -77.970001 -95.010986
		CHANNELS 3 Zrotation Yrotation Xrotation
		JOINT joint_15
		{
			OFFSET -2.666199 -21.455009 -443.700989
			CHANNELS 3 Zrotation Yrotation Xrotation
			JOINT joint_16
			{
				OFFSET -22.487976 -19.310196 -481.059006
				CHANNELS 3 Zrotation Yrotation Xrotation
				JOINT joint_17
				{
					OFFSET 177.776611 65.723053 -82.445997
					CHANNELS 3 Zrotation Yrotation Xrotation
					End Site
					{
						OFFSET 0.000000 0.000000 0.000000
					}
				}
			}
		}
	}
	JOINT joint_18
	{
		OFFSET 17.063904 75.900681 -95.447021
		CHANNELS 3 Zrotation Yrotation Xrotation
		JOINT joint_19
		{
			OFFSET -21.510803 8.101997 -443.629944
			CHANNELS 3 Zrotation Yrotation Xrotation
			JOINT joint_20
			{
				OFFSET -7.473022 -28.501774 -481.230011
				CHANNELS 3 Zrotation Yrotation Xrotation
				JOINT joint_21
				{
					OFFSET 177.760559 -64.115177 -83.737001
					CHANNELS 3 Zrotation Yrotation Xrotation
					End Site
					{
						OFFSET 0.000000 0.000000 0.000000
					}
				}
			}
		}
	}
}
MOTION
Frames: 11
Frame Time: 0.016667
461.799103 -43.106583 1161.020996 -4.469428 1.732569 -2.328219 0.286905 2.087589 7.663976 -0.277905 -0.066729 -1.101484 -0.045778 0.392780 1.359439 -1.113485 1.130462 4.596371 0.000000 0.000000 0.000000 0.708021 -10.197514 1.839030 12.256731 -5.825984 -20.602307 1.225467 70.581913 26.663804 0.000000 0.000000 0.000000 -4.725480 1.712649 1.513332 25.686785 18.602196 -16.287458 33.885894 40.888880 3.633900 0.000000 0.000000 0.000000 -8.190666 -22.486328 -2.315882 -10.594853 43.295553 -14.080033 -26.742018 1.708815 -10.152756 0.000000 0.000000 0.000000 2.198709 0.566133 -1.256361 1.894786 19.511317 11.108940 3.532141 4.311817 3.024449 0.000000 0.000000 0.000000 
475.028168 -40.770477 1160.904053 -4.878850 2.674789 -2.222697 0.327574 2.170858 8.050141 -0.270744 -0.059315 -1.156055 -0.020412 0.402011 1.418732 -1.036336 0.542327 4.427645 0.000000 0.000000 0.000000 0.619168 -10.450705 1.427256 11.638411 -6.048143 -21.475282 1.157484 66.393018 25.337684 0.000000 0.000000 0.000000 -4.001227 3.236154 1.937831 24.982444 19.102653 -16.254347 31.017769 37.503142 0.526201 0.000000 0.000000 0.000000 -8.140481 -23.690261 -3.106504 -10.772963 41.229714 -14.593079 -26.123495 0.693360 -9.596243 0.000000 0.000000 0.000000 2.326665 0.494344 -1.625546 1.999226 19.016455 11.113091 3.536011 4.699642 3.160354 0.000000 0.000000 0.000000 
488.925964 -39.118092 1161.250000 -5.120084 3.759559 -2.172459 0.334137 2.216532 8.453213 -0.290116 -0.035323 -1.208135 -0.019567 0.377171 1.477800 -0.936222 -0.193897 4.238886 0.000000 0.000000 0.000000 0.430094 -10.154078 1.108730 10.694692 -5.684744 -22.377296 0.852169 61.412024 24.047700 0.000000 0.000000 0.000000 -3.009769 5.420225 2.144681 24.125043 19.704351 -16.024001 27.827646 33.638354 -2.922667 0.000000 0.000000 0.000000 -8.274563 -24.657659 -3.676660 -11.242946 37.787535 -15.066290 -25.134886 0.303440 -9.228173 0.000000 0.000000 0.000000 2.429233 0.236513 -1.913365 2.105686 18.576822 11.132500 3.543899 5.241824 3.353166 0.000000 0.000000 0.000000 
503.803864 -38.564873 1161.661987 -5.025107 4.892463 -2.080007 0.279811 2.095797 8.611247 -0.326515 -0.004105 -1.209204 -0.045110 0.302630 1.501592 -0.829721 -0.848039 4.031706 0.000000 0.000000 0.000000 -0.050409 -9.415232 0.829616 9.539529 -4.934584 -22.917319 0.375268 56.488658 22.987195 0.000000 0.000000 0.000000 -2.087820 7.932348 2.423672 23.200038 20.335330 -15.448723 24.917477 30.140258 -5.897925 0.000000 0.000000 0.000000 -8.535927 -25.344317 -4.267411 -11.850201 33.751525 -15.088056 -23.822499 0.431946 -8.960047 0.000000 0.000000 0.000000 2.389540 -0.084636 -2.073305 2.085097 18.182717 11.013390 3.425543 5.954412 3.555661 0.000000 0.000000 0.000000 
520.105286 -39.542278 1161.969971 -4.496408 6.092376 -1.885707 0.152033 1.580835 8.354882 -0.360784 0.046180 -1.163678 -0.080757 0.182399 1.461776 -0.732600 -1.251190 3.793448 0.000000 0.000000 0.000000 -1.022731 -8.217015 0.634320 8.235216 -3.815010 -22.888430 -0.205504 52.050244 22.277923 0.000000 0.000000 0.000000 -1.398021 10.746770 3.215258 22.204805 21.106025 -14.573638 22.516880 27.344541 -8.095103 0.000000 0.000000 0.000000 -8.922881 -25.783035 -4.981746 -12.554115 29.561186 -14.489791 -22.337974 0.893510 -8.753281 0.000000 0.000000 0.000000 2.118116 -0.429476 -2.009437 1.852645 17.759656 10.580402 3.080955 6.869110 3.740399 0.000000 0.000000 0.000000 
537.714050 -41.887714 1162.321045 -3.533530 7.379509 -1.591392 -0.033613 0.752494 7.778304 -0.429401 0.097348 -1.081846 -0.164172 0.029783 1.364809 -0.631781 -1.482648 3.484683 0.000000 0.000000 0.000000 -2.340496 -6.516657 0.729582 6.696125 -2.162343 -22.678654 -0.891370 47.886738 21.891238 0.000000 0.000000 0.000000 -0.809065 14.046837 4.200975 21.123861 21.896210 -13.149043 20.414987 25.032688 -9.944236 0.000000 0.000000 0.000000 -9.465180 -25.911782 -5.765661 -13.372037 24.899527 -13.305972 -20.792314 1.844052 -8.698476 0.000000 0.000000 0.000000 1.650830 -0.837767 -1.737969 1.443121 17.303031 9.891052 2.540026 8.016233 3.931535 0.000000 0.000000 0.000000 
555.559814 -44.942001 1162.343994 -2.206981 8.487627 -1.223523 -0.260285 0.045692 7.106907 -0.583516 0.104928 -0.980033 -0.342361 -0.106792 1.264067 -0.521398 -1.604273 3.094609 0.000000 0.000000 0.000000 -3.545429 -4.579207 0.897339 5.057920 -0.281700 -22.213365 -1.633172 44.417187 21.945435 0.000000 0.000000 0.000000 -0.393252 16.920840 4.765270 20.045650 22.236715 -11.126655 18.923288 23.349914 -10.852167 0.000000 0.000000 0.000000 -9.868508 -25.711392 -6.680263 -13.907050 20.665857 -11.629388 -19.186146 3.197232 -8.722270 0.000000 0.000000 0.000000 1.056467 -1.264968 -1.403362 0.905670 17.137767 9.218278 1.888362 9.316905 4.137177 0.000000 0.000000 0.000000 
572.983826 -48.363796 1161.907959 -0.695891 9.279266 -0.850824 -0.515004 -0.350312 6.531699 -0.804173 0.090151 -0.884292 -0.586281 -0.186110 1.192799 -0.395452 -1.663967 2.611250 0.000000 0.000000 0.000000 -4.372331 -2.512652 0.888340 3.404517 1.621896 -21.192305 -2.403621 41.761848 22.505417 0.000000 0.000000 0.000000 -0.232348 18.655471 4.910757 19.045147 22.047765 -8.813947 18.169558 22.152398 -10.173721 0.000000 0.000000 0.000000 -9.750507 -25.248904 -7.751228 -13.734899 17.518850 -9.658246 -17.261408 4.662339 -8.611138 0.000000 0.000000 0.000000 0.412749 -1.690663 -1.095665 0.304463 17.429630 8.757157 1.208553 10.748736 4.387414 0.000000 0.000000 0.000000 
590.390198 -52.403259 1161.161987 1.000045 9.870243 -0.473376 -0.805566 -0.622864 5.985511 -1.066591 0.078532 -0.777326 -0.872382 -0.217091 1.116439 -0.250530 -1.622898 1.993190 0.000000 0.000000 0.000000 -4.946913 -0.213475 0.919464 1.760201 3.689507 -19.757286 -3.161428 39.837390 23.596014 0.000000 0.000000 0.000000 -0.291242 19.552666 5.052599 18.094098 21.615226 -6.453690 17.966905 21.180899 -8.102801 0.000000 0.000000 0.000000 -9.144343 -24.520756 -8.940531 -12.921612 14.983577 -7.511551 -15.055263 6.190301 -8.374847 0.000000 0.000000 0.000000 -0.300972 -2.156946 -0.753549 -0.372438 18.049924 8.400265 0.470336 12.361415 4.691289 0.000000 0.000000 0.000000 
607.577087 -56.655128 1159.537964 2.989691 10.236265 -0.059819 -1.146873 -0.687465 5.448190 -1.373226 0.029220 -0.644855 -1.203533 -0.206580 1.052403 -0.105036 -1.444014 1.286263 0.000000 0.000000 0.000000 -5.299046 2.065719 1.042696 0.390717 5.748396 -18.206364 -3.767292 38.951955 25.203787 0.000000 0.000000 0.000000 -0.630550 19.601697 5.049791 17.171544 21.066316 -4.715073 18.223276 20.376185 -5.024219 0.000000 0.000000 0.000000 -8.567769 -23.604418 -10.081891 -12.072614 12.881144 -5.613002 -13.326184 7.826097 -8.333838 0.000000 0.000000 0.000000 -1.131351 -2.763033 -0.362340 -1.156583 19.247234 8.047774 -0.324478 13.887010 4.954271 0.000000 0.000000 0.000000 
624.379150 -60.665703 1156.843018 5.330110 10.359273 0.341210 -1.550042 -0.527176 5.080391 -1.729703 -0.050171 -0.569010 -1.570335 -0.168105 1.042607 0.018168 -1.044113 0.531749 0.000000 0.000000 0.000000 -5.484813 4.142741 0.988365 -0.494306 7.621042 -16.424488 -4.073331 39.422130 27.331278 0.000000 0.000000 0.000000 -1.385966 18.718109 4.680289 16.166942 20.406676 -4.072996 18.957798 19.774269 -0.892293 0.000000 0.000000 0.000000 -8.413290 -22.637166 -11.010596 -11.678323 11.272761 -3.998998 -12.444462 9.900827 -8.785201 0.000000 0.000000 0.000000 -2.092178 -3.579799 0.084768 -2.063476 21.172417 7.718893 -1.166251 15.246535 5.157236 0.000000 0.000000 0.000000 
